REM DIRINDEX 1\2\5,1\2\6,1\3\7,1\3\8,1\4\9,1\4\10
REM DIRNAME folder01,folder02,folder03,folder04,folder05,folder06,folder07,folder08,folder09,folder10
TITLE ""
FILE "Track30.mp3" MP3
  TRACK 01 AUDIO
    TITLE "8:cjc079_0907"
    INDEX 01 00:00:00
  TRACK 02 AUDIO
    TITLE "8:cjc079_0908"
    INDEX 01 00:02:45
  TRACK 03 AUDIO
    TITLE "8:cjc079_0909"
    INDEX 01 00:04:52
  TRACK 04 AUDIO
    TITLE "7:cjc079_0910"
    INDEX 01 00:06:16
  TRACK 05 AUDIO
    TITLE "0:"
    INDEX 01 00:07:29
  TRACK 06 AUDIO
    TITLE "7:cjc079_0911"
    INDEX 01 00:08:01
  TRACK 07 AUDIO
    TITLE "0:"
    INDEX 01 00:09:26
  TRACK 08 AUDIO
    TITLE "8:cjc079_0912"
    INDEX 01 00:11:01
  TRACK 09 AUDIO
    TITLE "7:cjc079_0913"
    INDEX 01 00:12:38
  TRACK 10 AUDIO
    TITLE "0:"
    INDEX 01 00:13:51
  TRACK 11 AUDIO
    TITLE "7:cjc079_0914"
    INDEX 01 00:14:31
  TRACK 12 AUDIO
    TITLE "0:"
    INDEX 01 00:15:46
  TRACK 13 AUDIO
    TITLE "8:cjc079_0915"
    INDEX 01 00:17:21
  TRACK 14 AUDIO
    TITLE "7:cjc079_0916"
    INDEX 01 00:18:74
  TRACK 15 AUDIO
    TITLE "0:"
    INDEX 01 00:20:06
  TRACK 16 AUDIO
    TITLE "7:cjc079_0917"
    INDEX 01 00:20:53
  TRACK 17 AUDIO
    TITLE "0:"
    INDEX 01 00:21:64
  TRACK 18 AUDIO
    TITLE "8:cjc079_0918"
    INDEX 01 00:23:38
  TRACK 19 AUDIO
    TITLE "7:cjc079_0919"
    INDEX 01 00:25:01
  TRACK 20 AUDIO
    TITLE "0:"
    INDEX 01 00:26:11
  TRACK 21 AUDIO
    TITLE "7:cjc079_0920"
    INDEX 01 00:26:64
  TRACK 22 AUDIO
    TITLE "0:"
    INDEX 01 00:28:02
  TRACK 23 AUDIO
    TITLE "8:cjc079_0921"
    INDEX 01 00:29:60
  TRACK 24 AUDIO
    TITLE "7:cjc079_0922"
    INDEX 01 00:31:20
  TRACK 25 AUDIO
    TITLE "0:"
    INDEX 01 00:32:29
  TRACK 26 AUDIO
    TITLE "7:cjc079_0923"
    INDEX 01 00:33:03
  TRACK 27 AUDIO
    TITLE "0:"
    INDEX 01 00:34:20
  TRACK 28 AUDIO
    TITLE "8:cjc079_0924"
    INDEX 01 00:35:74
  TRACK 29 AUDIO
    TITLE "8:cjc079_0925"
    INDEX 01 00:37:67
  TRACK 30 AUDIO
    TITLE "7:cjc079_0926"
    INDEX 01 00:39:33
  TRACK 31 AUDIO
    TITLE "0:"
    INDEX 01 00:40:36
  TRACK 32 AUDIO
    TITLE "7:cjc079_0927"
    INDEX 01 00:41:10
  TRACK 33 AUDIO
    TITLE "0:"
    INDEX 01 00:42:21
  TRACK 34 AUDIO
    TITLE "8:cjc079_0928"
    INDEX 01 00:43:70
  TRACK 35 AUDIO
    TITLE "7:cjc079_0929"
    INDEX 01 00:45:30
  TRACK 36 AUDIO
    TITLE "0:"
    INDEX 01 00:46:47
  TRACK 37 AUDIO
    TITLE "7:cjc079_0930"
    INDEX 01 00:47:17
  TRACK 38 AUDIO
    TITLE "0:"
    INDEX 01 00:48:38
  TRACK 39 AUDIO
    TITLE "8:cjc079_0931"
    INDEX 01 00:50:07
  TRACK 40 AUDIO
    TITLE "7:cjc079_0932"
    INDEX 01 00:51:56
  TRACK 41 AUDIO
    TITLE "0:"
    INDEX 01 00:52:59
  TRACK 42 AUDIO
    TITLE "7:cjc079_0933"
    INDEX 01 00:53:31
  TRACK 43 AUDIO
    TITLE "0:"
    INDEX 01 00:54:36
  TRACK 44 AUDIO
    TITLE "8:cjc079_0934"
    INDEX 01 00:56:06
  TRACK 45 AUDIO
    TITLE "7:cjc079_0935"
    INDEX 01 00:57:46
  TRACK 46 AUDIO
    TITLE "0:"
    INDEX 01 00:58:56
  TRACK 47 AUDIO
    TITLE "7:cjc079_0936"
    INDEX 01 00:59:34
  TRACK 48 AUDIO
    TITLE "0:"
    INDEX 01 01:00:53
  TRACK 49 AUDIO
    TITLE "8:cjc079_0937"
    INDEX 01 01:02:34
  TRACK 50 AUDIO
    TITLE "7:cjc079_0938"
    INDEX 01 01:03:69
  TRACK 51 AUDIO
    TITLE "0:"
    INDEX 01 01:05:11
  TRACK 52 AUDIO
    TITLE "7:cjc079_0939"
    INDEX 01 01:05:58
  TRACK 53 AUDIO
    TITLE "0:"
    INDEX 01 01:07:02
  TRACK 54 AUDIO
    TITLE "8:cjc079_0940"
    INDEX 01 01:08:48
  TRACK 55 AUDIO
    TITLE "8:cjc079_0941"
    INDEX 01 01:10:69
  TRACK 56 AUDIO
    TITLE "7:cjc079_0942"
    INDEX 01 01:12:30
  TRACK 57 AUDIO
    TITLE "0:"
    INDEX 01 01:13:40
  TRACK 58 AUDIO
    TITLE "7:cjc079_0943"
    INDEX 01 01:14:16
  TRACK 59 AUDIO
    TITLE "0:"
    INDEX 01 01:15:29
  TRACK 60 AUDIO
    TITLE "8:cjc079_0944"
    INDEX 01 01:17:06
  TRACK 61 AUDIO
    TITLE "7:cjc079_0945"
    INDEX 01 01:18:41
  TRACK 62 AUDIO
    TITLE "0:"
    INDEX 01 01:19:52
  TRACK 63 AUDIO
    TITLE "7:cjc079_0946"
    INDEX 01 01:20:30
  TRACK 64 AUDIO
    TITLE "0:"
    INDEX 01 01:21:47
  TRACK 65 AUDIO
    TITLE "8:cjc079_0947"
    INDEX 01 01:23:24
  TRACK 66 AUDIO
    TITLE "7:cjc079_0948"
    INDEX 01 01:25:00
  TRACK 67 AUDIO
    TITLE "0:"
    INDEX 01 01:26:13
  TRACK 68 AUDIO
    TITLE "7:cjc079_0949"
    INDEX 01 01:26:62
  TRACK 69 AUDIO
    TITLE "0:"
    INDEX 01 01:28:02
  TRACK 70 AUDIO
    TITLE "8:cjc079_0950"
    INDEX 01 01:29:50
  TRACK 71 AUDIO
    TITLE "7:cjc079_0951"
    INDEX 01 01:31:16
  TRACK 72 AUDIO
    TITLE "0:"
    INDEX 01 01:32:29
  TRACK 73 AUDIO
    TITLE "7:cjc079_0952"
    INDEX 01 01:32:74
  TRACK 74 AUDIO
    TITLE "0:"
    INDEX 01 01:34:14
  TRACK 75 AUDIO
    TITLE "8:cjc079_0953"
    INDEX 01 01:35:71
  TRACK 76 AUDIO
    TITLE "7:cjc079_0954"
    INDEX 01 01:37:30
  TRACK 77 AUDIO
    TITLE "0:"
    INDEX 01 01:38:38
  TRACK 78 AUDIO
    TITLE "7:cjc079_0955"
    INDEX 01 01:39:15
  TRACK 79 AUDIO
    TITLE "0:"
    INDEX 01 01:40:29
  TRACK 80 AUDIO
    TITLE "8:cjc079_0956"
    INDEX 01 01:42:02
  TRACK 81 AUDIO
    TITLE "8:cjc079_0957"
    INDEX 01 01:44:09
  TRACK 82 AUDIO
    TITLE "7:cjc079_0958"
    INDEX 01 01:45:49
  TRACK 83 AUDIO
    TITLE "0:"
    INDEX 01 01:46:70
  TRACK 84 AUDIO
    TITLE "7:cjc079_0959"
    INDEX 01 01:47:40
  TRACK 85 AUDIO
    TITLE "0:"
    INDEX 01 01:48:61
  TRACK 86 AUDIO
    TITLE "8:cjc079_0960"
    INDEX 01 01:50:33
  TRACK 87 AUDIO
    TITLE "7:cjc079_0961"
    INDEX 01 01:51:66
  TRACK 88 AUDIO
    TITLE "0:"
    INDEX 01 01:53:02
  TRACK 89 AUDIO
    TITLE "7:cjc079_0962"
    INDEX 01 01:53:49
  TRACK 90 AUDIO
    TITLE "0:"
    INDEX 01 01:54:64
  TRACK 91 AUDIO
    TITLE "8:cjc079_0963"
    INDEX 01 01:56:39
  TRACK 92 AUDIO
    TITLE "7:cjc079_0964"
    INDEX 01 01:58:15
  TRACK 93 AUDIO
    TITLE "0:"
    INDEX 01 01:59:32
  TRACK 94 AUDIO
    TITLE "7:cjc079_0965"
    INDEX 01 02:00:04
  TRACK 95 AUDIO
    TITLE "0:"
    INDEX 01 02:01:17
  TRACK 96 AUDIO
    TITLE "8:cjc079_0966"
    INDEX 01 02:02:67
  TRACK 97 AUDIO
    TITLE "7:cjc079_0967"
    INDEX 01 02:04:33
  TRACK 98 AUDIO
    TITLE "0:"
    INDEX 01 02:05:50
  TRACK 99 AUDIO
    TITLE "7:cjc079_0968"
    INDEX 01 02:06:26
  TRACK 100 AUDIO
    TITLE "0:"
    INDEX 01 02:07:43
  TRACK 101 AUDIO
    TITLE "8:cjc079_0969"
    INDEX 01 02:09:21
  TRACK 102 AUDIO
    TITLE "7:cjc079_0970"
    INDEX 01 02:10:55
  TRACK 103 AUDIO
    TITLE "0:"
    INDEX 01 02:11:64
  TRACK 104 AUDIO
    TITLE "7:cjc079_0971"
    INDEX 01 02:12:36
  TRACK 105 AUDIO
    TITLE "0:"
    INDEX 01 02:13:50
